<?xml version="1.0" encoding="iso-8859-1"?>
<!-- Generator: Adobe Illustrator 19.1.0, SVG Export Plug-In . SVG Version: 6.00 Build 0)  -->
<svg xmlns="http://www.w3.org/2000/svg" xmlns:xlink="http://www.w3.org/1999/xlink" version="1.1" id="Capa_1" x="0px" y="0px" viewBox="0 0 491.452 491.452" style="enable-background:new 0 0 491.452 491.452;" xml:space="preserve" width="512px" height="512px">
<g>
	<g>
		<path d="M43.315,434.724c0,0,192.662,0,221.338,0c52.1,0,106.567-54.651,128.427-87.441    c21.86-32.791,25.922-101.558,25.922-101.558v-37.799v-37.8l34.65-37.799l37.8-37.8h-37.8h-37.8c0,0-3.15-37.8-75.599-37.8    s-113.399,37.8-113.399,75.6c0,37.799,0,0,0,37.799c0,37.8-75.599,0-75.599,0L0.056,94.526c0,0-3.15,113.399,37.8,188.997    c40.95,75.603,75.6,113.401,75.6,113.401L43.315,434.724z" fill="#FFFFFF"/>
	</g>
	<g>
	</g>
	<g>
	</g>
	<g>
	</g>
	<g>
	</g>
	<g>
	</g>
	<g>
	</g>
	<g>
	</g>
	<g>
	</g>
	<g>
	</g>
	<g>
	</g>
	<g>
	</g>
	<g>
	</g>
	<g>
	</g>
	<g>
	</g>
	<g>
	</g>
</g>
<g>
</g>
<g>
</g>
<g>
</g>
<g>
</g>
<g>
</g>
<g>
</g>
<g>
</g>
<g>
</g>
<g>
</g>
<g>
</g>
<g>
</g>
<g>
</g>
<g>
</g>
<g>
</g>
<g>
</g>
</svg>
