<?xml version="1.0"?>
<svg xmlns="http://www.w3.org/2000/svg" height="512px" viewBox="0 0 384 384" width="512px"><path d="m352 0h-320c-17.648438 0-32 14.351562-32 32v32c0 17.648438 14.351562 32 32 32v256h-16c-8.832031 0-16 7.167969-16 16s7.167969 16 16 16h352c8.832031 0 16-7.167969 16-16s-7.167969-16-16-16h-16v-256c17.648438 0 32-14.351562 32-32v-32c0-17.648438-14.351562-32-32-32zm-96 352h-128v-128c0-35.289062 28.710938-64 64-64s64 28.710938 64 64zm64 0h-32v-128c0-52.9375-43.0625-96-96-96s-96 43.0625-96 96v128h-32v-256h256zm32-288h-320l-.015625-32h320.015625zm0 0" fill="#91DC5A"/></svg>
