<?xml version="1.0"?>
<svg xmlns="http://www.w3.org/2000/svg" height="512px" viewBox="0 0 512 512" width="512px"><path d="m65.90625 75.144531h11.222656c8.28125 0 14.996094-6.714843 14.996094-14.996093s-6.714844-14.996094-14.996094-14.996094h-11.222656c-8.28125 0-14.996094 6.714844-14.996094 14.996094s6.714844 14.996093 14.996094 14.996093zm0 0" fill="#91DC5A"/><path d="m114.878906 75.144531h11.222656c8.28125 0 14.996094-6.714843 14.996094-14.996093s-6.714844-14.996094-14.996094-14.996094h-11.222656c-8.28125 0-14.996094 6.714844-14.996094 14.996094s6.714844 14.996093 14.996094 14.996093zm0 0" fill="#91DC5A"/><path d="m511.015625 189.929688c0-58.683594-33.757813-109.625-82.867187-134.441407-1.628907-30.871093-27.253907-55.488281-58.527344-55.488281h-311.011719c-32.320313 0-58.609375 26.292969-58.609375 58.609375v394.78125c0 32.316406 26.289062 58.609375 58.609375 58.609375h311.011719c32.320312 0 58.609375-26.292969 58.609375-58.609375v-129.0625c49.066406-24.835937 82.785156-75.75 82.785156-134.398437zm-150.535156 120.542968c-66.464844 0-120.542969-54.074218-120.542969-120.542968s54.074219-120.542969 120.542969-120.542969 120.542969 54.074219 120.542969 120.542969c0 66.464843-54.074219 120.542968-120.542969 120.542968zm-301.871094-280.484375h311.011719c10.0625 0 18.921875 5.222657 24.027344 13.097657-10.675782-2.410157-21.773438-3.691407-33.167969-3.691407-44.652344 0-84.820313 19.550781-112.414063 50.535157h-218.078125v-31.320313c0-15.78125 12.839844-28.621094 28.621094-28.621094zm339.632813 423.402344c0 15.78125-12.839844 28.621094-28.621094 28.621094h-311.011719c-15.78125 0-28.621094-12.839844-28.621094-28.621094v-333.46875h197.265625c-5.273437 9.988281-9.453125 20.636719-12.382812 31.792969h-137.742188c-8.28125 0-14.996094 6.710937-14.996094 14.992187s6.714844 14.996094 14.996094 14.996094h133.046875c-.144531 2.722656-.226562 5.464844-.226562 8.226563 0 83.003906 67.53125 150.53125 150.535156 150.53125 13.035156 0 25.6875-1.667969 37.757813-4.796876zm0 0" fill="#91DC5A"/><path d="m307.648438 192.101562c-5.855469 5.851563-5.855469 15.347657 0 21.203126 5.855468 5.855468 15.347656 5.855468 21.203124 0 17.441407-17.4375 45.820313-17.4375 63.257813 0 2.925781 2.929687 6.765625 4.390624 10.601563 4.390624 3.839843 0 7.675781-1.460937 10.605468-4.390624 5.855469-5.855469 5.855469-15.351563 0-21.203126-29.132812-29.132812-76.535156-29.132812-105.667968 0zm0 0" fill="#91DC5A"/><path d="m438.125 180.097656c5.855469-5.855468 5.855469-15.351562 0-21.207031-42.8125-42.8125-112.472656-42.8125-155.285156 0-5.855469 5.855469-5.855469 15.351563 0 21.207031 5.855468 5.855469 15.347656 5.855469 21.203125 0 31.121093-31.121094 81.757812-31.117187 112.875 0 2.929687 2.925782 6.765625 4.390625 10.605469 4.390625 3.835937 0 7.671874-1.464843 10.601562-4.390625zm0 0" fill="#91DC5A"/><path d="m376.878906 231.59375c0 9.054688-7.339844 16.394531-16.398437 16.394531-9.054688 0-16.394531-7.339843-16.394531-16.394531s7.339843-16.398438 16.394531-16.398438c9.058593 0 16.398437 7.34375 16.398437 16.398438zm0 0" fill="#91DC5A"/></svg>
